<svg width="20" height="20" viewBox="0 0 20 20" fill="none" xmlns="http://www.w3.org/2000/svg">
<path fill-rule="evenodd" clip-rule="evenodd" d="M6.4 0H13.6C15.8402 0 16.9603 0 17.816 0.435974C18.5686 0.819467 19.1805 1.43139 19.564 2.18404C20 3.03968 20 4.15979 20 6.4V13.6C20 15.8402 20 16.9603 19.564 17.816C19.1805 18.5686 18.5686 19.1805 17.816 19.564C16.9603 20 15.8402 20 13.6 20H6.4C4.15979 20 3.03968 20 2.18404 19.564C1.43139 19.1805 0.819467 18.5686 0.435974 17.816C0 16.9603 0 15.8402 0 13.6V6.4C0 4.15979 0 3.03968 0.435974 2.18404C0.819467 1.43139 1.43139 0.819467 2.18404 0.435974C3.03968 0 4.15979 0 6.4 0Z" fill="#007AFF"/>
<path fill-rule="evenodd" clip-rule="evenodd" d="M4 10C4 9.44772 4.44772 9 5 9H15C15.5523 9 16 9.44772 16 10C16 10.5523 15.5523 11 15 11H5C4.44772 11 4 10.5523 4 10Z" fill="white"/>
</svg>
